<?xml version="1.0" encoding="UTF-8"?>
<svg fill="none" viewBox="0 0 110 35" xmlns="http://www.w3.org/2000/svg">
<path d="m1.797 5.0381h3.01v5.882h5.204v-5.882h3v15.591h-3v-6.837h-5.204v6.837h-3.01v-15.591z" clip-rule="evenodd" fill="#1D71B8" fill-rule="evenodd"/>
<path d="m21.379 11.53c-0.888 0-1.626 0.314-2.214 0.943-0.588 0.628-0.882 1.433-0.882 2.416 0 0.991 0.299 1.805 0.897 2.444 0.599 0.638 1.335 0.958 2.209 0.958 0.904 0 1.652-0.315 2.247-0.943 0.594-0.628 0.892-1.451 0.892-2.469 0-0.997-0.298-1.805-0.892-2.422-0.595-0.617-1.347-0.927-2.257-0.927zm3.022-2.358h2.875v11.457h-2.875v-1.211c-0.56 0.533-1.123 0.917-1.688 1.153-0.564 0.235-1.176 0.353-1.835 0.353-1.48 0-2.76-0.575-3.84-1.722-1.079-1.148-1.619-2.575-1.619-4.281 0-1.769 0.522-3.219 1.567-4.349 1.045-1.13 2.313-1.695 3.808-1.695 0.687 0 1.332 0.13 1.935 0.389 0.603 0.26 1.16 0.65 1.672 1.169v-1.263z" clip-rule="evenodd" fill="#1D71B8" fill-rule="evenodd"/>
<path d="m35.401 11.53c-0.889 0-1.627 0.314-2.214 0.943-0.588 0.628-0.882 1.433-0.882 2.416 0 0.991 0.299 1.805 0.897 2.444 0.598 0.638 1.335 0.958 2.21 0.958 0.902 0 1.651-0.315 2.245-0.943 0.596-0.628 0.893-1.451 0.893-2.469 0-0.997-0.297-1.805-0.893-2.422-0.594-0.617-1.346-0.927-2.256-0.927zm3.023-6.781h2.875v15.88h-2.875v-1.211c-0.562 0.533-1.125 0.917-1.688 1.153-0.565 0.235-1.177 0.353-1.836 0.353-1.479 0-2.76-0.575-3.84-1.722-1.079-1.148-1.619-2.575-1.619-4.281 0-1.769 0.522-3.219 1.567-4.349 1.045-1.13 2.314-1.695 3.808-1.695 0.687 0 1.332 0.13 1.935 0.389 0.603 0.26 1.16 0.65 1.673 1.169v-5.686z" clip-rule="evenodd" fill="#1D71B8" fill-rule="evenodd"/>
<path d="m44.673 20.629h2.875v-15.88h-2.875v15.88z" clip-rule="evenodd" fill="#1D71B8" fill-rule="evenodd"/>
<path d="m58.548 13.468c-0.19-0.639-0.565-1.158-1.124-1.559-0.559-0.4-1.208-0.6-1.946-0.6-0.802 0-1.505 0.225-2.11 0.674-0.38 0.281-0.731 0.776-1.055 1.485h6.235zm2.875 2.264h-9.236c0.133 0.815 0.489 1.462 1.069 1.943 0.579 0.48 1.317 0.721 2.216 0.721 1.075 0 1.997-0.375 2.77-1.127l2.422 1.137c-0.604 0.857-1.327 1.491-2.169 1.901-0.842 0.411-1.843 0.617-3.002 0.617-1.797 0-3.26-0.568-4.391-1.701-1.13-1.134-1.695-2.554-1.695-4.26 0-1.748 0.563-3.2 1.69-4.354 1.127-1.155 2.539-1.732 4.239-1.732 1.804 0 3.271 0.577 4.401 1.732 1.131 1.154 1.696 2.68 1.696 4.575l-0.01 0.548z" clip-rule="evenodd" fill="#1D71B8" fill-rule="evenodd"/>
<path d="m63.218 20.629h2.875v-11.457h-2.875v11.457zm1.438-16.175c0.504 0 0.936 0.183 1.297 0.548 0.36 0.364 0.54 0.807 0.54 1.326 0 0.512-0.178 0.95-0.535 1.311-0.358 0.362-0.784 0.543-1.281 0.543-0.511 0-0.947-0.185-1.308-0.553-0.36-0.369-0.54-0.816-0.54-1.343 0-0.505 0.178-0.937 0.535-1.295s0.787-0.537 1.292-0.537z" clip-rule="evenodd" fill="#1D71B8" fill-rule="evenodd"/>
<path d="m74.976 11.562c-0.906 0-1.654 0.304-2.243 0.911-0.59 0.607-0.885 1.37-0.885 2.29 0 0.954 0.302 1.738 0.906 2.348 0.604 0.611 1.362 0.917 2.274 0.917 0.892 0 1.627-0.299 2.206-0.896 0.58-0.596 0.869-1.379 0.869-2.348 0-0.954-0.291-1.731-0.874-2.327s-1.334-0.895-2.253-0.895zm2.98-2.39h2.864v9.814c0 1.938-0.39 3.363-1.169 4.275-1.046 1.236-2.622 1.853-4.728 1.853-1.123 0-2.068-0.14-2.833-0.42-0.765-0.281-1.411-0.694-1.938-1.238-0.526-0.544-0.915-1.206-1.169-1.985h3.171c0.28 0.323 0.642 0.567 1.084 0.732 0.442 0.164 0.965 0.247 1.569 0.247 0.772 0 1.394-0.119 1.864-0.358 0.47-0.238 0.802-0.547 0.995-0.926 0.193-0.38 0.29-1.033 0.29-1.959-0.506 0.506-1.036 0.869-1.591 1.09-0.554 0.221-1.183 0.332-1.884 0.332-1.538 0-2.837-0.555-3.897-1.664-1.06-1.11-1.59-2.513-1.59-4.212 0-1.818 0.562-3.279 1.685-4.381 1.018-0.99705 2.232-1.495 3.643-1.495 0.661 0 1.284 0.121 1.87 0.363s1.174 0.641 1.764 1.195v-1.263z" clip-rule="evenodd" fill="#1D71B8" fill-rule="evenodd"/>
<path d="m82.522 4.749h2.854v5.581c0.561-0.48498 1.127-0.84798 1.695-1.09 0.569-0.242 1.144-0.363 1.727-0.363 1.138 0 2.096 0.393 2.875 1.179 0.667 0.681 1.001 1.681 1.001 3.001v7.572h-2.834v-5.023c0-1.328-0.063-2.226-0.189-2.696s-0.342-0.822-0.647-1.053c-0.306-0.232-0.684-0.348-1.133-0.348-0.582 0-1.083 0.193-1.5 0.579-0.418 0.386-0.708 0.913-0.869 1.58-0.084 0.344-0.126 1.131-0.126 2.359v4.602h-2.854v-15.88z" clip-rule="evenodd" fill="#1D71B8" fill-rule="evenodd"/>
<path d="m98.194 7.8655c0.338-0.262 0.593-0.52 0.764-0.773 0.12-0.18 0.18-0.339 0.18-0.478 0-0.161-0.078-0.3-0.235-0.417-0.156-0.117-0.365-0.175-0.625-0.175-0.247 0-0.448 0.06-0.603 0.179-0.156 0.12-0.233 0.263-0.233 0.427 0 0.127 0.031 0.245 0.095 0.356 0.155 0.268 0.375 0.562 0.657 0.881zm-0.085 0.922c-0.593 0.446-0.98 0.801-1.164 1.065-0.184 0.26398-0.276 0.50798-0.276 0.73198 0 0.266 0.113 0.501 0.337 0.704 0.225 0.204 0.5 0.306 0.827 0.306 0.247 0 0.489-0.05 0.726-0.152 0.373-0.161 0.802-0.435 1.284-0.82l-1.099-1.134c-0.19-0.198-0.402-0.432-0.635-0.701zm3.1429 0.708 0.472 0.5c-0.303 0.26898-0.592 0.49998-0.863 0.69598 0.189 0.174 0.437 0.414 0.741 0.718 0.241 0.24 0.448 0.461 0.621 0.664h-0.971l-0.925-0.953c-0.5799 0.467-1.0529 0.773-1.4159 0.915s-0.747 0.213-1.152 0.213c-0.537 0-0.9681-0.154-1.2941-0.462-0.325-0.308-0.4879-0.693-0.4879-1.155 0-0.347 0.111-0.69498 0.329-1.044 0.22-0.35 0.667-0.791 1.343-1.326-0.382-0.461-0.627-0.8-0.736-1.02s-0.163-0.429-0.163-0.628c0-0.347 0.134-0.635 0.403-0.862 0.31-0.265 0.694-0.398 1.156-0.398 0.29 0 0.556 0.059 0.796 0.175 0.24 0.118 0.423 0.275 0.55 0.472 0.126 0.198 0.189 0.407 0.189 0.628 0 0.234-0.082 0.483-0.246 0.746-0.165 0.264-0.489 0.601-0.973 1.012l1.056 1.109 0.6929 0.70198c0.373-0.27398 0.665-0.50698 0.878-0.70198z" clip-rule="evenodd" fill="#000" fill-rule="evenodd"/>
<path d="m100.68 16.615-0.526 0.328c-0.4539-0.604-1.0749-0.906-1.8599-0.906-0.628 0-1.15 0.202-1.565 0.606s-0.622 0.895-0.622 1.472c0 0.376 0.095 0.729 0.286 1.061 0.191 0.331 0.453 0.588 0.786 0.771 0.332 0.183 0.706 0.274 1.12 0.274 0.756 0 1.375-0.301 1.8549-0.904l0.526 0.345c-0.247 0.371-0.578 0.66-0.9929 0.864-0.416 0.205-0.888 0.307-1.419 0.307-0.815 0-1.491-0.259-2.029-0.777-0.537-0.518-0.805-1.149-0.805-1.891 0-0.499 0.125-0.963 0.376-1.39 0.252-0.429 0.597-0.763 1.036-1.003s0.93-0.36 1.474-0.36c0.341 0 0.67 0.052 0.987 0.156 0.319 0.105 0.588 0.24 0.8089 0.408 0.221 0.167 0.409 0.38 0.564 0.639z" clip-rule="evenodd" fill="#000" fill-rule="evenodd"/>
<path d="m104.3 16.061c-0.552 0-1.026 0.204-1.422 0.611-0.397 0.408-0.595 0.9-0.595 1.479 0 0.373 0.091 0.72 0.271 1.042 0.181 0.322 0.425 0.571 0.733 0.747 0.307 0.174 0.644 0.262 1.013 0.262 0.367 0 0.705-0.088 1.012-0.262 0.308-0.176 0.552-0.425 0.733-0.747 0.18-0.322 0.271-0.669 0.271-1.042 0-0.579-0.199-1.071-0.597-1.479-0.398-0.407-0.872-0.611-1.419-0.611zm2e-3 -0.649c0.794 0 1.453 0.287 1.975 0.862 0.474 0.525 0.712 1.146 0.712 1.862 0 0.721-0.251 1.35-0.753 1.889s-1.146 0.808-1.934 0.808c-0.791 0-1.438-0.269-1.94-0.808-0.501-0.539-0.752-1.168-0.752-1.889 0-0.713 0.237-1.333 0.712-1.857 0.522-0.578 1.183-0.867 1.98-0.867z" clip-rule="evenodd" fill="#000" fill-rule="evenodd"/>
<path d="m108.84 19.657c0.161 0 0.298 0.058 0.412 0.171 0.114 0.114 0.17 0.253 0.17 0.417 0 0.161-0.056 0.3-0.17 0.415s-0.251 0.173-0.412 0.173-0.298-0.058-0.413-0.173c-0.113-0.115-0.17-0.254-0.17-0.415 0-0.164 0.057-0.303 0.17-0.417 0.115-0.113 0.252-0.171 0.413-0.171z" clip-rule="evenodd" fill="#000" fill-rule="evenodd"/>
<path d="m1.801 30.345h4.135m81.634 0h4.135-4.135z" stroke="#000"/>
<path d="m9.261 28.428h0.492v0.718c0.171-0.265 0.34601-0.458 0.52601-0.58 0.249-0.164 0.51-0.244 0.784-0.244 0.186 0 0.361 0.039 0.527 0.118 0.167 0.079 0.303 0.183 0.408 0.314 0.106 0.132 0.197 0.319 0.274 0.563 0.164-0.325 0.368-0.573 0.613-0.742 0.246-0.17 0.509-0.253 0.792-0.253 0.264 0 0.497 0.072 0.698 0.217 0.202 0.145 0.352 0.347 0.45 0.607 0.098 0.259 0.147 0.648 0.147 1.167v2.266h-0.502v-2.266c0-0.445-0.029-0.75-0.087-0.917s-0.158-0.301-0.299-0.403-0.309-0.153-0.506-0.153c-0.238 0-0.456 0.076-0.652 0.23-0.197 0.152-0.342 0.355-0.433 0.61-0.09 0.254-0.136 0.679-0.136 1.274v1.625h-0.491v-2.125c0-0.501-0.029-0.841-0.087-1.02-0.057-0.18-0.157-0.323-0.299-0.432-0.143-0.107-0.313-0.162-0.509-0.162-0.228 0-0.44 0.074-0.637 0.224-0.199 0.148-0.34501 0.348-0.43901 0.6-0.095 0.252-0.142 0.637-0.142 1.157v1.758h-0.492v-4.151z" clip-rule="evenodd" fill="#000" fill-rule="evenodd"/>
<path d="m17.633 28.836c-0.273 0-0.526 0.073-0.757 0.22-0.232 0.146-0.416 0.351-0.553 0.615-0.137 0.265-0.205 0.544-0.205 0.838 0 0.293 0.069 0.572 0.207 0.839 0.138 0.266 0.323 0.474 0.556 0.623 0.232 0.148 0.482 0.222 0.748 0.222 0.269 0 0.524-0.073 0.765-0.22 0.24-0.148 0.425-0.347 0.555-0.598 0.13-0.252 0.195-0.535 0.195-0.85 0-0.481-0.145-0.882-0.436-1.204-0.291-0.323-0.65-0.485-1.075-0.485zm1.964-0.408v4.151h-0.485v-0.713c-0.206 0.272-0.437 0.477-0.693 0.615-0.256 0.136-0.537 0.206-0.841 0.206-0.54 0-1.002-0.214-1.384-0.64-0.383-0.426-0.574-0.944-0.574-1.555 0-0.597 0.193-1.108 0.579-1.534 0.386-0.424 0.85-0.636 1.393-0.636 0.314 0 0.598 0.072 0.852 0.217 0.253 0.145 0.477 0.362 0.668 0.653v-0.764h0.485z" clip-rule="evenodd" fill="#000" fill-rule="evenodd"/>
<path d="m20.409 28.428h0.502v0.606c0.15-0.238 0.307-0.417 0.474-0.535 0.166-0.119 0.339-0.177 0.519-0.177 0.136 0 0.281 0.046 0.436 0.141l-0.256 0.449c-0.103-0.048-0.19-0.072-0.261-0.072-0.163 0-0.321 0.073-0.473 0.22-0.152 0.146-0.268 0.373-0.347 0.68-0.061 0.238-0.092 0.715-0.092 1.435v1.404h-0.502v-4.151z" clip-rule="evenodd" fill="#000" fill-rule="evenodd"/>
<path d="m22.804 26.825h0.492v3.279l1.77-1.676h0.721l-2.098 1.98 2.221 2.171h-0.692l-1.922-1.869v1.869h-0.492v-5.754z" clip-rule="evenodd" fill="#000" fill-rule="evenodd"/>
<path d="m29.466 30.084c-0.065-0.285-0.161-0.513-0.287-0.683-0.125-0.17-0.291-0.307-0.497-0.413-0.206-0.103-0.423-0.156-0.65-0.156-0.375 0-0.697 0.132-0.967 0.394-0.197 0.19-0.345 0.476-0.446 0.858h2.847zm0 1.117 0.414 0.238c-0.136 0.29-0.293 0.524-0.471 0.702-0.177 0.177-0.378 0.313-0.6 0.406-0.223 0.093-0.475 0.14-0.756 0.14-0.623 0-1.11-0.223-1.462-0.666-0.351-0.445-0.526-0.946-0.526-1.506 0-0.526 0.148-0.995 0.446-1.407 0.377-0.525 0.881-0.786 1.514-0.786 0.651 0 1.171 0.268 1.56 0.804 0.276 0.38 0.417 0.853 0.421 1.419h-3.436c9e-3 0.483 0.151 0.878 0.425 1.187 0.274 0.307 0.613 0.461 1.016 0.461 0.194 0 0.384-0.036 0.567-0.109 0.184-0.074 0.341-0.171 0.47-0.293 0.128-0.122 0.268-0.318 0.418-0.59z" clip-rule="evenodd" fill="#000" fill-rule="evenodd"/>
<path d="m31.078 26.887h0.491v1.541h0.779v0.462h-0.779v3.689h-0.491v-3.689h-0.671v-0.462h0.671v-1.541z" clip-rule="evenodd" fill="#000" fill-rule="evenodd"/>
<path d="m32.868 32.579h0.491v-4.1511h-0.491v4.1511zm0.244-5.86c0.112 0 0.207 0.043 0.286 0.13 0.08 0.086 0.119 0.1899 0.119 0.3119 0 0.12-0.039 0.2231-0.119 0.3101-0.079 0.087-0.174 0.129-0.286 0.129-0.109 0-0.204-0.042-0.283-0.129s-0.119-0.1901-0.119-0.3101c0-0.122 0.04-0.2259 0.119-0.3119 0.079-0.087 0.174-0.13 0.283-0.13z" clip-rule="evenodd" fill="#000" fill-rule="evenodd"/>
<path d="m34.388 28.428h0.491v0.744c0.197-0.284 0.415-0.498 0.653-0.639 0.239-0.141 0.499-0.211 0.78-0.211 0.285 0 0.539 0.079 0.759 0.236 0.222 0.158 0.385 0.37 0.49 0.638 0.106 0.266 0.158 0.682 0.158 1.246v2.137h-0.491v-1.979c0-0.479-0.018-0.798-0.055-0.958-0.057-0.276-0.166-0.482-0.328-0.62-0.161-0.139-0.372-0.208-0.631-0.208-0.298 0-0.564 0.107-0.799 0.32-0.236 0.214-0.39 0.479-0.466 0.794-0.046 0.206-0.07 0.583-0.07 1.13v1.521h-0.491v-4.151z" clip-rule="evenodd" fill="#000" fill-rule="evenodd"/>
<path d="m40.543 28.836c-0.279 0-0.537 0.073-0.775 0.22-0.239 0.146-0.426 0.349-0.562 0.606-0.136 0.259-0.203 0.538-0.203 0.838 0 0.455 0.14 0.832 0.421 1.129 0.28 0.298 0.644 0.446 1.091 0.446 0.451 0 0.815-0.147 1.09-0.442s0.413-0.683 0.413-1.164c0-0.313-0.064-0.592-0.19-0.837s-0.305-0.44-0.537-0.582-0.481-0.214-0.748-0.214zm1.45-0.408h0.492v3.308c0 0.582-0.047 1.008-0.141 1.279-0.129 0.381-0.352 0.675-0.67 0.881-0.319 0.206-0.701 0.309-1.148 0.309-0.328 0-0.622-0.05-0.883-0.151s-0.473-0.236-0.637-0.405c-0.164-0.17-0.315-0.419-0.453-0.746h0.533c0.146 0.276 0.333 0.479 0.563 0.612 0.23 0.132 0.514 0.198 0.854 0.198 0.335 0 0.618-0.068 0.849-0.204s0.395-0.306 0.493-0.512c0.099-0.205 0.148-0.536 0.148-0.994v-0.213c-0.185 0.254-0.411 0.449-0.678 0.585s-0.551 0.204-0.85 0.204c-0.352 0-0.682-0.095-0.992-0.284-0.309-0.189-0.548-0.444-0.716-0.765-0.168-0.32-0.253-0.672-0.253-1.057 0-0.384 0.088-0.742 0.263-1.073 0.176-0.333 0.419-0.595 0.729-0.789 0.311-0.193 0.638-0.289 0.983-0.289 0.285 0 0.551 0.064 0.799 0.192 0.247 0.129 0.485 0.341 0.715 0.636v-0.722z" clip-rule="evenodd" fill="#000" fill-rule="evenodd"/>
<path d="m49.17 29.29-0.39 0.264c-0.337-0.486-0.796-0.729-1.378-0.729-0.465 0-0.851 0.162-1.159 0.488-0.307 0.325-0.461 0.72-0.461 1.185 0 0.302 0.071 0.587 0.212 0.854 0.142 0.266 0.336 0.473 0.582 0.621 0.247 0.147 0.523 0.22 0.829 0.22 0.561 0 1.019-0.242 1.375-0.728l0.39 0.279c-0.183 0.299-0.428 0.531-0.736 0.695-0.308 0.165-0.657 0.248-1.051 0.248-0.604 0-1.105-0.209-1.502-0.626-0.398-0.417-0.598-0.925-0.598-1.523 0-0.401 0.094-0.775 0.28-1.12s0.442-0.613 0.767-0.807c0.325-0.193 0.689-0.289 1.092-0.289 0.252 0 0.496 0.041 0.731 0.125 0.236 0.084 0.435 0.194 0.599 0.329 0.164 0.134 0.303 0.306 0.418 0.514z" clip-rule="evenodd" fill="#000" fill-rule="evenodd"/>
<path d="m51.611 28.844c-0.409 0-0.76 0.164-1.054 0.492-0.293 0.328-0.44 0.726-0.44 1.19 0 0.301 0.067 0.581 0.201 0.84s0.315 0.46 0.543 0.601c0.227 0.142 0.478 0.212 0.75 0.212s0.522-0.07 0.75-0.212c0.228-0.141 0.409-0.342 0.543-0.601 0.133-0.259 0.2-0.539 0.2-0.84 0-0.464-0.147-0.862-0.442-1.19s-0.645-0.492-1.051-0.492zm1e-3 -0.522c0.589 0 1.077 0.231 1.463 0.694 0.352 0.422 0.528 0.922 0.528 1.499 0 0.58-0.186 1.087-0.557 1.52-0.372 0.435-0.85 0.652-1.434 0.652-0.585 0-1.064-0.217-1.436-0.652-0.372-0.433-0.557-0.94-0.557-1.52 0-0.574 0.176-1.073 0.528-1.495 0.386-0.465 0.875-0.698 1.465-0.698z" clip-rule="evenodd" fill="#000" fill-rule="evenodd"/>
<path d="m54.324 28.428h0.492v0.744c0.197-0.284 0.415-0.498 0.653-0.639 0.239-0.141 0.498-0.211 0.78-0.211 0.285 0 0.538 0.079 0.759 0.236 0.221 0.158 0.385 0.37 0.49 0.638 0.105 0.266 0.157 0.682 0.157 1.246v2.137h-0.491v-1.979c0-0.479-0.018-0.798-0.054-0.958-0.057-0.276-0.166-0.482-0.328-0.62-0.161-0.139-0.372-0.208-0.631-0.208-0.298 0-0.564 0.107-0.799 0.32-0.236 0.214-0.39 0.479-0.466 0.794-0.046 0.206-0.07 0.583-0.07 1.13v1.521h-0.492v-4.151z" clip-rule="evenodd" fill="#000" fill-rule="evenodd"/>
<path d="m60.587 28.882-0.316 0.356c-0.263-0.278-0.52-0.417-0.771-0.417-0.16 0-0.297 0.057-0.41 0.172-0.114 0.115-0.171 0.248-0.171 0.401 0 0.135 0.046 0.262 0.141 0.385 0.094 0.125 0.29 0.271 0.59 0.439 0.367 0.205 0.615 0.404 0.746 0.595 0.129 0.193 0.194 0.411 0.194 0.652 0 0.341-0.11 0.63-0.331 0.866-0.22 0.237-0.495 0.356-0.826 0.356-0.22 0-0.431-0.053-0.631-0.158-0.2-0.103-0.366-0.248-0.497-0.43l0.308-0.382c0.251 0.308 0.518 0.462 0.799 0.462 0.197 0 0.365-0.068 0.503-0.206 0.139-0.137 0.208-0.299 0.208-0.485 0-0.153-0.046-0.289-0.138-0.409-0.091-0.116-0.297-0.263-0.619-0.442-0.344-0.192-0.579-0.384-0.703-0.571-0.124-0.189-0.186-0.404-0.186-0.646 0-0.315 0.098-0.577 0.297-0.786 0.198-0.208 0.448-0.312 0.75-0.312 0.352 0 0.706 0.187 1.063 0.56z" clip-rule="evenodd" fill="#000" fill-rule="evenodd"/>
<path d="m61.35 28.428h0.492v1.938c0 0.474 0.023 0.799 0.07 0.977 0.071 0.255 0.204 0.456 0.403 0.604 0.198 0.147 0.434 0.22 0.708 0.22 0.275 0 0.507-0.071 0.698-0.216 0.191-0.143 0.323-0.332 0.395-0.566 0.05-0.16 0.074-0.5 0.074-1.019v-1.938h0.502v2.038c0 0.572-0.061 1.003-0.184 1.293s-0.308 0.517-0.554 0.681c-0.248 0.165-0.557 0.247-0.929 0.247s-0.683-0.082-0.932-0.247c-0.249-0.164-0.435-0.393-0.558-0.687-0.123-0.293-0.185-0.735-0.185-1.325v-2z" clip-rule="evenodd" fill="#000" fill-rule="evenodd"/>
<path d="m65.667 32.579h0.491v-5.754h-0.491v5.754z" clip-rule="evenodd" fill="#000" fill-rule="evenodd"/>
<path d="m67.658 26.887h0.492v1.541h0.779v0.462h-0.779v3.689h-0.492v-3.689h-0.671v-0.462h0.671v-1.541z" clip-rule="evenodd" fill="#000" fill-rule="evenodd"/>
<path d="m71.529 28.836c-0.274 0-0.526 0.073-0.757 0.22-0.232 0.146-0.416 0.351-0.553 0.615-0.137 0.265-0.205 0.544-0.205 0.838 0 0.293 0.069 0.572 0.207 0.839 0.138 0.266 0.323 0.474 0.556 0.623 0.232 0.148 0.482 0.222 0.748 0.222 0.269 0 0.524-0.073 0.764-0.22 0.241-0.148 0.426-0.347 0.556-0.598 0.13-0.252 0.195-0.535 0.195-0.85 0-0.481-0.146-0.882-0.437-1.204-0.291-0.323-0.649-0.485-1.074-0.485zm1.963-0.408v4.151h-0.484v-0.713c-0.206 0.272-0.437 0.477-0.693 0.615-0.257 0.136-0.537 0.206-0.841 0.206-0.54 0-1.002-0.214-1.385-0.64-0.382-0.426-0.574-0.944-0.574-1.555 0-0.597 0.194-1.108 0.58-1.534 0.386-0.424 0.85-0.636 1.393-0.636 0.313 0 0.598 0.072 0.852 0.217 0.253 0.145 0.476 0.362 0.668 0.653v-0.764h0.484z" clip-rule="evenodd" fill="#000" fill-rule="evenodd"/>
<path d="m74.62 28.428h0.492v0.744c0.196-0.284 0.414-0.498 0.652-0.639 0.239-0.141 0.499-0.211 0.78-0.211 0.285 0 0.539 0.079 0.759 0.236 0.222 0.158 0.385 0.37 0.49 0.638 0.106 0.266 0.158 0.682 0.158 1.246v2.137h-0.491v-1.979c0-0.479-0.019-0.798-0.055-0.958-0.057-0.276-0.166-0.482-0.328-0.62-0.161-0.139-0.372-0.208-0.632-0.208-0.297 0-0.563 0.107-0.798 0.32-0.236 0.214-0.39 0.479-0.466 0.794-0.046 0.206-0.069 0.583-0.069 1.13v1.521h-0.492v-4.151z" clip-rule="evenodd" fill="#000" fill-rule="evenodd"/>
<path d="m79.454 26.887h0.491v1.541h0.779v0.462h-0.779v3.689h-0.491v-3.689h-0.671v-0.462h0.671v-1.541z" clip-rule="evenodd" fill="#000" fill-rule="evenodd"/>
<path d="m83.404 28.882-0.316 0.356c-0.264-0.278-0.521-0.417-0.772-0.417-0.159 0-0.296 0.057-0.409 0.172-0.114 0.115-0.171 0.248-0.171 0.401 0 0.135 0.047 0.262 0.141 0.385 0.093 0.125 0.29 0.271 0.59 0.439 0.367 0.205 0.615 0.404 0.746 0.595 0.129 0.193 0.194 0.411 0.194 0.652 0 0.341-0.11 0.63-0.331 0.866-0.22 0.237-0.495 0.356-0.826 0.356-0.22 0-0.43-0.053-0.631-0.158-0.2-0.103-0.366-0.248-0.497-0.43l0.309-0.382c0.25 0.308 0.517 0.462 0.798 0.462 0.197 0 0.365-0.068 0.504-0.206 0.138-0.137 0.207-0.299 0.207-0.485 0-0.153-0.046-0.289-0.138-0.409-0.091-0.116-0.297-0.263-0.619-0.442-0.344-0.192-0.578-0.384-0.703-0.571-0.124-0.189-0.186-0.404-0.186-0.646 0-0.315 0.098-0.577 0.297-0.786 0.198-0.208 0.448-0.312 0.75-0.312 0.352 0 0.706 0.187 1.063 0.56z" clip-rule="evenodd" fill="#000" fill-rule="evenodd"/>
</svg>
