<svg width="100" height="28" viewBox="0 0 100 28" fill="none" xmlns="http://www.w3.org/2000/svg">
<path d="M7.46269 14.692C6.86435 15.7478 0.916497 23.8073 0.107028 25.3911C-0.632054 28.7697 2.67622 27.6083 3.30972 26.8341C3.59162 26.4895 6.26604 22.2588 6.82915 21.2381C7.00113 20.9265 7.26201 20.168 7.36921 20.0063C7.43256 19.9109 8.1399 19.8288 8.16658 20.0063C8.58891 22.8219 9.36318 26.2358 12.4955 27.2212C15.0013 28.0095 17.5283 26.3296 18.4785 25.3911C18.7718 24.2649 19.4977 21.9773 18.7938 22.5686C17.9139 23.3076 17.1281 24.1945 15.1703 24.1945C12.8296 24.1945 11.6156 21.0152 11.2989 19.584C16.6484 18.8449 24.2504 14.692 22.8778 7.82907C20.9773 0.297472 12.1435 2.33875 10.1727 3.07783C8.29398 3.78232 2.37363 6.56207 0.846108 10.715C-0.28011 13.7769 3.48569 14.4104 4.6471 11.3837C5.80852 8.35699 8.58891 6.52688 10.7358 5.61182C12.8826 4.69677 16.4021 5.18949 17.4227 6.17493C18.4433 7.16038 19.8159 9.48322 18.1266 12.7915C16.7751 15.4381 12.8357 16.8857 11.0173 17.226C10.5948 16.3609 10.4563 13.9037 9.2576 13.7417C8.82351 13.683 7.94133 13.8473 7.46269 14.692Z" fill="#333333"/>
<path d="M24.2273 17.1839C24.4737 15.2834 21.734 15.4082 21.1005 16.288C20.1151 17.9422 19.0186 21.9 18.6721 23.3973C17.7922 26.2129 18.9738 27.6719 20.5319 27.6719C21.9404 27.6719 23.8345 26.2066 24.4792 25.7553C24.8311 25.509 25.535 23.151 25.711 22.0247C24.3384 23.7141 22.3917 24.8724 22.0101 24.0821C21.271 22.3575 24.1178 18.0286 24.2273 17.1839Z" fill="#333333"/>
<path d="M25.1833 14.1469C26.5877 14.3369 28.3182 11.9033 29.0706 10.6458C27.6912 8.36604 25.71 10.0759 25.1833 10.9986C24.6567 11.9214 23.7789 13.8728 25.1833 14.1469Z" fill="#333333"/>
<path d="M25.6887 20.6831C27.2426 17.3749 30.6511 15.7911 32.7628 15.1928C34.7337 14.9816 34.3016 18.2043 32.9771 18.2043C32.1368 18.2043 31.0063 18.3099 29.6689 19.7881C28.2259 21.7589 27.6276 24.2929 29.8097 24.2225C31.2913 24.1747 34.3813 21.1055 35.6839 21.1055C36.4614 21.583 36.0391 22.3924 34.5346 23.6394C32.4461 26.2086 28.3404 28.7282 25.9471 27.2148C23.5539 25.7015 24.5977 23.0059 25.6887 20.6831Z" fill="#333333"/>
<path d="M44.4153 2.13885C43.1483 4.98959 34.5257 22.4108 33.0827 26.1414C33.0827 28.2883 35.3351 27.7604 35.8279 26.9157C36.3206 26.0711 38.6082 21.7773 39.84 20.4752C41.0718 19.173 44.4153 16.6742 45.3655 17.4484C46.3158 18.2227 43.3243 20.1936 42.0573 22.974C40.7903 25.7543 41.9165 27.3733 44.0634 27.6548C45.7808 27.8801 48.58 25.7895 49.7648 24.6633C50.9145 22.5047 52.7001 18.7154 50.6447 20.8271C48.0755 23.4667 46.175 25.345 45.3655 24.265C44.5561 23.1851 48.1298 19.9567 48.9554 18.1875C49.4481 17.1317 50.1519 14.6459 47.3012 13.9994C44.8709 13.4482 42.4796 15.5479 40.4031 17.0965C42.198 12.9787 46.5622 6.08062 47.9699 2.73715C49.3777 -0.606314 45.6823 -0.711897 44.4153 2.13885Z" fill="#333333"/>
<path fill-rule="evenodd" clip-rule="evenodd" d="M57.3774 15.2721C60.2986 14.6034 61.284 15.4833 62.1287 16.2928C63.1493 15.4833 65.6129 15.4481 65.2962 17.4542C64.0644 19.5306 61.9879 24.1059 63.2549 24.4579C63.4949 24.5245 63.8086 24.3609 64.1429 24.1865L64.1431 24.1863C64.5021 23.9991 64.885 23.7994 65.2258 23.8596C65.8839 23.9757 66.1016 24.8727 65.7889 25.4785C65.2258 26.5695 63.3253 27.8014 61.6008 27.6606C59.8762 27.5198 58.9964 25.1266 59.6651 23.5428C56.8143 26.8511 53.5765 27.7662 51.9927 27.4142C50.409 27.0623 49.142 25.1266 50.0922 22.1351C51.0425 19.1435 54.4563 15.9408 57.3774 15.2721ZM54.4563 24.2115C56.4272 24.4579 58.8556 21.3021 59.9114 19.6714C57.9757 16.7151 55.1954 18.9323 54.4563 20.129C53.7172 21.3256 52.4854 23.8561 54.4563 24.2115Z" fill="#333333"/>
<path d="M76.2307 15.3412C75.4643 15.2421 73.3565 15.169 72.0778 16.5064C73.4504 11.0199 63.6311 15.8729 69.403 17.703C68.0808 19.9585 65.0037 24.1436 63.7367 24.3899C63.3144 25.0586 61.1449 27.663 61.7306 27.663C65.8066 27.663 66.4819 25.794 67.6433 23.6471C68.4241 22.2037 70.0144 18.5875 71.0815 17.9808C71.9722 18.3717 72.6554 17.6268 73.3448 17.9808C73.9416 18.2873 69.0863 23.5101 68.9455 24.527C68.4561 25.8996 69.2623 28.2928 71.5499 27.8704C73.8375 27.4481 76.8992 24.4148 77.5329 23.6471C80.0646 20.5806 78.8757 19.713 78.448 20.1629C76.7696 21.9281 74.4839 24.9877 73.6967 24.527C72.1834 23.26 80.4869 15.892 76.2307 15.3412Z" fill="#333333"/>
<path fill-rule="evenodd" clip-rule="evenodd" d="M84.6179 15.52C87.539 14.8513 88.5245 15.7312 89.3691 16.5407C89.4531 16.4741 90.2505 14.6815 91.2933 12.3371L91.2958 12.3315C93.1674 8.1235 95.8279 2.14206 96.5734 1.17057C99.0018 -1.11707 100.269 0.431483 99.9521 1.73368C97.1723 8.1185 95.0407 12.4435 93.7904 14.9803L93.7895 14.9821C93.0142 16.5553 92.578 17.4403 92.5366 17.7021C91.3048 19.7785 89.2284 24.3538 90.4954 24.7058C90.7353 24.7724 91.0488 24.6089 91.383 24.4346L91.3833 24.4344C91.7424 24.247 92.1254 24.0473 92.4662 24.1075C93.1244 24.2237 93.342 25.1206 93.0294 25.7264C92.4662 26.8174 90.5658 28.0492 88.8412 27.9084C87.1167 27.7677 86.2368 25.3744 86.9055 23.7907C84.0548 27.099 80.8169 28.014 79.2332 27.6621C77.6494 27.3101 76.3824 25.3744 77.3327 22.3829C78.2829 19.3914 81.6968 16.1887 84.6179 15.52ZM81.6967 24.4594C83.6676 24.7058 86.096 21.5499 87.1519 19.9193C85.2162 16.963 82.4358 19.1802 81.6967 20.3769C80.9576 21.5735 79.7258 24.1039 81.6967 24.4594Z" fill="#333333"/>
<path d="M98.5443 25.9123C98.5443 26.8842 97.7564 27.672 96.7846 27.672C95.8127 27.672 95.0248 26.8842 95.0248 25.9123C95.0248 24.9404 95.8127 24.1526 96.7846 24.1526C97.7564 24.1526 98.5443 24.9404 98.5443 25.9123Z" fill="#333333"/>
</svg>
